<?xml version="1.0" encoding="iso-8859-1"?>
<!-- Uploaded to: SVG Repo, www.svgrepo.com, Generator: SVG Repo Mixer Tools -->
<svg fill="#000000" height="800px" width="800px" version="1.1" id="Layer_1" xmlns="http://www.w3.org/2000/svg" xmlns:xlink="http://www.w3.org/1999/xlink" 
	 viewBox="0 0 512.001 512.001" xml:space="preserve">
<g>
	<g>
		<path d="M426.475,363.91c-16.15-0.177-29.573,12.765-29.754,29.102c-0.18,16.2,12.816,29.574,29.102,29.754
			c16.253,0.18,29.574-12.85,29.754-29.103C455.757,377.411,442.728,364.089,426.475,363.91z"/>
	</g>
</g>
<g>
	<g>
		<path d="M451.942,432.479h-74.56c6.092-3.333,10.264-9.755,10.358-17.193c0.176-13.973,0.317-25.196,0.499-39.626l18.878-26.884
			l40.298-25.119c6.656-4.148,8.688-12.907,4.539-19.562c-4.148-6.655-12.907-8.689-19.562-4.539l-42.699,26.616
			c-1.513,0.934-2.944,2.194-4.19,3.965l-17.059,24.293l2.986,36.996l-17.792-50.992l29.67-39.146
			c4.97-6.56,3.364-16.068-3.703-20.564c-6.087-3.882-14.389-2.582-18.93,3.409l-34.937,46.132c-0.12,0.159-0.215,0.331-0.329,0.495
			c-2.618,3.772-3.229,8.554-1.762,12.762l20.132,55.267l-20.174-30.576l-56.367,8.709l9.813,24.286l-32.897-49.844
			c-5.09-7.747-15.439-10.004-23.294-5.081l-90.058,56.471c-7.973,4.999-10.383,15.517-5.384,23.49
			c5.002,7.975,15.519,10.382,23.49,5.384l75.925-47.608l27.939,42.528c1.74,2.648,4.099,4.636,6.753,5.932h-32.816
			c-6.16,0-11.154,4.994-11.154,11.154c0,6.16,4.994,11.154,11.154,11.154h20.082c-1.941,2.455-3.109,5.55-3.109,8.923
			c0,7.959,6.452,14.409,14.409,14.409c7.957,0,14.409-6.451,14.409-14.409c0-3.373-1.168-6.468-3.109-8.923h139.872
			c-1.941,2.455-3.109,5.55-3.109,8.923c0,7.959,6.452,14.409,14.409,14.409c7.957,0,14.409-6.451,14.409-14.409
			c0-3.373-1.168-6.468-3.109-8.923h20.082c6.161,0,11.154-4.994,11.154-11.154C463.099,437.473,458.103,432.479,451.942,432.479z"
			/>
	</g>
</g>
<g>
	<g>
		<path d="M490.666,249.435v-15.35c0-27.878-22.6-50.477-50.478-50.478h-62.272l-0.165-0.296l69.359-74.346
			c6.182-6.627,5.821-17.011-0.805-23.194s-17.01-5.821-23.194,0.805l-62.197,66.67L301.993,48.03
			c-4.887-8.727-14.137-14.149-24.14-14.149H80.516c-12.888,0-24.252,9.135-27.021,21.723L24.616,188.001v60.473
			C10.504,251.808,0,264.477,0,279.606c0,17.673,14.326,32,32,32c17.647,0,22.192,0,29.276,0
			c0.075-38.548,31.456-69.886,70.021-69.886c38.565,0,69.945,31.338,70.021,69.886h107.975
			c0.075-38.548,31.455-69.886,70.019-69.886c26.448,0,49.513,14.741,61.422,36.436c10.865,0.28,21.386,5.835,27.567,15.749
			c3.439,5.517,5.068,11.646,5.063,17.702h6.637c17.673,0,32-14.326,32-32C512,265.675,503.093,253.829,490.666,249.435z
			 M62.709,157.176l20.343-92.472h68.045v92.472H62.709z M243.082,210.634h-33.03c-6.161,0-11.154-4.994-11.154-11.154
			c0-6.16,4.994-11.154,11.154-11.154h33.03c6.16,0,11.154,4.994,11.154,11.154C254.236,205.64,249.242,210.634,243.082,210.634z
			 M183.919,157.176V64.704h92.086l51.785,92.472H183.919z"/>
	</g>
</g>
</svg>