<?xml version="1.0" encoding="iso-8859-1"?>
<!-- Uploaded to: SVG Repo, www.svgrepo.com, Generator: SVG Repo Mixer Tools -->
<svg fill="#000000" height="800px" width="800px" version="1.1" id="Layer_1" xmlns="http://www.w3.org/2000/svg" xmlns:xlink="http://www.w3.org/1999/xlink" 
	 viewBox="0 0 512 512" xml:space="preserve">
<g>
	<g>
		<path d="M493.679,281.269L472.83,169.501c-1.07-5.742-6.082-9.904-11.923-9.904H258.28c-5.841,0-10.852,4.162-11.923,9.904
			l-9.35,50.122l-34.575-26.813c-2.915-2.261-7.107-1.73-9.365,1.184c-2.26,2.913-1.729,7.107,1.184,9.365
			c17.646,13.684,32.572,25.303,40.012,30.976l-8.754,46.933c-11.269,10.544-18.322,25.54-18.322,42.19v52.765
			c0,11.943,9.682,21.625,21.625,21.625h3.168v25.73c0,15.832,12.835,28.667,28.667,28.667c15.832,0,28.667-12.834,28.667-28.667
			v-25.73h25.903v8.481c0,6.111,4.954,11.066,11.066,11.066h66.619c6.111,0,11.066-4.954,11.066-11.066v-8.481h25.903v25.73
			c0,15.832,12.835,28.667,28.667,28.667c15.832,0,28.667-12.834,28.667-28.667v-25.73h3.168c11.943,0,21.625-9.682,21.625-21.625
			v-52.765C512,306.808,504.948,291.813,493.679,281.269z M259.886,358.258c-13.89,0-25.149-11.267-25.149-25.164
			s11.26-25.164,25.149-25.164c13.89,0,25.148,11.266,25.148,25.164C285.036,346.991,273.776,358.258,259.886,358.258z
			 M387.874,377.964h-56.559c-5.054,0-9.152-4.097-9.152-9.152s4.097-9.152,9.152-9.152h56.559c5.054,0,9.152,4.097,9.152,9.152
			S392.928,377.964,387.874,377.964z M402.982,343.098h-86.777c-5.054,0-9.152-4.097-9.152-9.152s4.097-9.152,9.152-9.152h86.777
			c5.054,0,9.152,4.097,9.152,9.152S408.036,343.098,402.982,343.098z M388.527,265.677c1.39-9.636,9.677-17.07,19.69-17.07
			s18.301,7.435,19.69,17.07H388.527z M408.217,228.393c-21.171,0-38.553,16.481-40.021,37.285h-103.23
			c-4.156,0-8.207,0.448-12.115,1.283l15.502-83.108h67.606c-1.144,1.692-1.811,3.731-1.811,5.927
			c0,5.853,4.745,10.597,10.597,10.597h29.694c5.853,0,10.597-4.745,10.597-10.597c0-2.196-0.668-4.235-1.811-5.927h67.606
			l15.502,83.108c-3.908-0.834-7.958-1.283-12.115-1.283h-5.982C446.77,244.874,429.388,228.393,408.217,228.393z M459.3,358.258
			c-13.89,0-25.149-11.267-25.149-25.164s11.26-25.164,25.149-25.164c13.89,0,25.149,11.266,25.149,25.164
			C484.45,346.991,473.19,358.258,459.3,358.258z"/>
	</g>
</g>
<g>
	<g>
		<path d="M240.012,143.931c-2.26-2.914-6.453-3.445-9.365-1.184l-36.396,28.225c-2.914,2.258-3.443,6.453-1.184,9.365
			c2.262,2.917,6.458,3.44,9.365,1.184l36.396-28.225C241.742,151.038,242.272,146.843,240.012,143.931z"/>
	</g>
</g>
<g>
	<g>
		<path d="M230.048,180.14h-18.357c-3.686,0-6.675,2.989-6.675,6.675s2.989,6.675,6.675,6.675h18.357
			c3.686,0,6.675-2.989,6.675-6.675S233.734,180.14,230.048,180.14z"/>
	</g>
</g>
<g>
	<g>
		<path d="M53.995,88.464c-2.628,15.908,7.044,31.019,22.085,35.597l8.137-25.846L53.995,88.464z"/>
	</g>
</g>
<g>
	<g>
		<path d="M90.693,62.283c-11.53-1.954-22.656,2.565-29.676,10.912l28.212,9.103l5.954-18.912
			C93.734,62.918,92.237,62.544,90.693,62.283z"/>
	</g>
</g>
<g>
	<g>
		<path d="M131.522,62.786l-10.755-3.386c-3.433-1.081-7.093,0.827-8.175,4.26l-21.922,69.629c-1.082,3.435,0.824,7.096,4.259,8.176
			l10.755,3.385c7.818,2.462,16.152-1.88,18.614-9.699l7.392-23.479l-14.022-4.414c-3.335-1.05-5.188-4.606-4.138-7.941l4.537-14.41
			c1.05-3.335,4.606-5.189,7.941-4.138l14.022,4.414l1.192-3.784C143.683,73.581,139.34,65.248,131.522,62.786z"/>
	</g>
</g>
<g>
	<g>
		<path d="M176.091,173.465h-28.926c-5.243,0-9.904,3.341-11.589,8.306l-5.167,15.227c8.701,0,16.294,2.3,23.067,8.19l2.459-7.248
			h20.154c6.759,0,12.238-5.479,12.238-12.238C188.328,178.944,182.85,173.465,176.091,173.465z"/>
	</g>
</g>
<g>
	<g>
		<path d="M72.627,246.862h58.964c9.106,0,16.489-7.382,16.489-16.488c0-9.106-7.383-16.49-16.489-16.49H84.69l-16.61-52.289
			l21.937,35.402h6.682l4.743-27.985c1.958-11.554-5.798-22.77-17.59-24.768c-14.812-2.51-23.896-4.05-38.784-6.572
			c-11.697-1.982-22.787,5.893-24.768,17.59c-1.752,10.342-18.288,107.91-20.057,118.354l0.172,0.029L0,434.283
			c-0.026,10.257,8.267,18.594,18.523,18.619c0.017,0,0.032,0,0.049,0c10.234,0,18.543-8.283,18.57-18.523l0.397-154.442
			l7.547,1.279l0.011,153.117c0.001,10.257,8.316,18.571,18.574,18.57c10.256-0.001,18.57-8.317,18.57-18.572l-0.001-20.253
			c18.154-8.819,58.697-33.085,50.3-70.737c-6.525-29.262-3.012-60.126,0.683-79.633c-1.167,0.057-0.49,0.041-13.655,0.041
			c-3.753,20.746-6.853,52.026-0.058,82.497C125.075,371.199,98.963,389.84,82.24,399l-0.009-116.641l3.154-18.609
			c-7.372,0-12.405,0-19.847,0c-13.15,0-23.91-10.325-24.721-23.272l-4.165-68.896l20.261,63.784
			C59.087,242.212,65.443,246.862,72.627,246.862z"/>
	</g>
</g>
</svg>